<?xml version="1.0" standalone="no"?>
<!DOCTYPE svg PUBLIC "-//W3C//DTD SVG 20010904//EN"
 "http://www.w3.org/TR/2001/REC-SVG-20010904/DTD/svg10.dtd">
<svg version="1.0" xmlns="http://www.w3.org/2000/svg"
 width="1004.000000pt" height="1004.000000pt" viewBox="0 0 1004.000000 1004.000000"
 preserveAspectRatio="xMidYMid meet">
<metadata>
Created by potrace 1.14, written by Peter Selinger 2001-2017
</metadata>
<g transform="translate(0.000000,1004.000000) scale(0.100000,-0.100000)"
fill="#000000" stroke="none">
<path d="M4705 9984 c-22 -2 -92 -9 -155 -14 -951 -85 -1879 -462 -2644 -1074
-746 -596 -1315 -1420 -1615 -2339 -110 -337 -178 -663 -223 -1067 -17 -154
-17 -786 0 -940 73 -662 225 -1189 502 -1745 486 -976 1259 -1749 2235 -2235
551 -275 1085 -429 1730 -500 162 -18 642 -24 826 -11 1028 76 1972 445 2773
1085 745 596 1318 1425 1614 2336 229 705 297 1447 201 2190 -70 545 -228
1062 -479 1565 -486 976 -1259 1749 -2235 2235 -551 275 -1078 427 -1730 500
-97 11 -719 22 -800 14z m365 -1531 c33 -22 131 -111 670 -608 864 -798 1432
-1314 1816 -1652 133 -117 245 -220 248 -229 3 -8 6 -738 6 -1620 l0 -1604
-2787 2 -2788 3 0 1575 0 1575 24 60 c28 70 105 150 301 316 69 59 282 251
474 429 799 738 1539 1412 1691 1540 55 46 129 111 165 145 36 35 74 67 85 73
29 16 67 14 95 -5z"/>
</g>
</svg>
